<svg width="24" height="24" viewBox="0 0 24 24" fill="none" xmlns="http://www.w3.org/2000/svg">
<path d="M14.1774 3.46536L15.8357 6.87406C16.0628 7.34192 16.6701 7.8069 17.1851 7.89244L20.2483 8.44163C22.2098 8.78899 22.6455 10.2168 21.2249 11.614L18.8055 13.9803C18.4016 14.3769 18.1615 15.1614 18.2865 15.715L18.9352 18.6841C19.4449 21.0282 18.195 21.9232 16.1462 20.6776L13.2841 18.9372C12.7629 18.6192 11.9087 18.6167 11.3877 18.9159L8.48894 20.5837C6.41391 21.7756 5.18152 20.8547 5.74523 18.5249L6.46525 15.5767C6.5997 15.0256 6.38798 14.2356 5.99135 13.8316L3.6116 11.4078C2.22332 9.98276 2.6911 8.56597 4.65658 8.26035L7.72542 7.78536C8.24356 7.70092 8.86188 7.26242 9.09536 6.79553L10.8318 3.41921C11.7795 1.60074 13.2824 1.62064 14.1774 3.46536Z" fill="#ACACAC"/>
</svg>
